<?xml version="1.0" encoding="UTF-8"?>
<svg id="IMAGOTIPO_PRINCIPAL_AZUL" data-name="IMAGOTIPO PRINCIPAL AZUL" xmlns="http://www.w3.org/2000/svg" viewBox="0 0 1920 1080">
  <defs>
    <style>
      .cls-1 {
        fill: #2f557f;
      }

      .cls-2 {
        fill: #2f5580;
      }
    </style>
  </defs>
  <g>
    <g>
      <path class="cls-2" d="M609.27,473.08c-22.7,16.72-21.44,53-21.31,13.82-1.56-24.12,63.14-53.37,36.52-79.12-.87-.75-.42-1.68.72-1.16,12.97,5.91,23.19,27.38.96,49.61l-16.89,16.85ZM587.91,516.93c.56-.49-1.39,22.32,1.4,17.18,2.68-19.25,24.94-34.66,38.1-49.14,22.23-22.23,26.08-43.74,14.77-57.57-.75-.92-1.56-.37-1.07.74,10.77,37.48-51.48,57.58-53.2,88.79ZM538.6,461.67c-22.23,22.23-12.01,43.7.96,49.61,1.14.52,1.59-.4.72-1.16-10.4-9.01-7.24-24.16,5.84-37.24,13.8-16.91,57.3-48.44,58.3-69.49,0,0,0-17.06,0-17.06,0-1.04-1.19-1.04-1.4,0-3.64,23.86-49.33,57.01-64.41,75.34ZM604.46,373.36c-.6.47,1.41-22.34-1.4-17.18-7.75,42.09-112.65,88.15-80.48,134.32.75.92,1.56.37,1.07-.74-7.47-16.91,10.45-34.84,18.98-43.38,14.07-17.42,60.62-51.33,61.83-73.03ZM532.52,407.83c-18.6,18.15-23.97,44.36-16.4,52.56-2.61-36.62,82.55-80.64,88.3-116.99-.57.44,1.39-22.15-1.4-17.06-3.68,24.27-55.18,62.7-70.49,81.49ZM559.26,546.21c-.39,0-.7-.31-.7-.7.3-.51-.75-11.06.7-10.6.35-.35,18.11.83,17.45-.69,2.71-25.81-75.89-.41-91.61-.29,0,0-44.17,44.17-44.54,44.6-1.44,5.06,96.52-16.47,97.29-15.05,21.96-3.71,33.94,6.75,37.52,16.54.32.87,1.35.74,1.35-.09,0-.6,0-33.02,0-33.02.78-1.55-17.18-.33-17.46-.7ZM628.48,525.14c-13.08,15.02-42.8,35.69-40.52,54.79,0,.83,1.03.96,1.35.09,3.58-9.79,15.56-20.24,37.52-16.54.78-1.42,98.71,20.11,97.28,15.05-.36-.43-44.53-44.6-44.53-44.6l-51.1-8.79ZM649.94,457.54c-4.09,30.26-38.04,48.47-58.33,77.39h15.8c22.39-21.09,52.8-49.69,42.53-77.39ZM587.95,563.95c.84,4.42,5.77-16.52,9.14-17.74-.58.32-9.44-.75-9.14.7,0,0,0,17.04,0,17.04Z"/>
      <path class="cls-2" d="M710.16,547.79c-.33-9.28,14.42-9.32,14.22,0,.35,9.3-14.57,9.3-14.22,0ZM723.28,547.79c.28-7.83-12.33-8.04-12.03,0-.26,7.79,12.19,8.06,12.03,0ZM714.62,543.57c3.85-.74,8.07,1.73,4.03,4.71l2.25,3.76h-1.67l-1.94-3.35h-1.2v3.35h-1.47v-8.47ZM717.06,547.49c2.89-.28,1.48-3.41-.97-2.67v2.67h.97Z"/>
    </g>
    <g>
      <path class="cls-2" d="M835.87,555.61h-30.75l-9.24,24.01h-9.89l30.31-77.9h8.8l30.21,77.9h-10.1l-9.34-24.01ZM824.25,523.45c-.65-1.74-2.93-8.91-3.69-11.63-1.09,4.45-2.5,9.13-3.37,11.63l-8.8,23.47h24.56l-8.69-23.47Z"/>
      <path class="cls-2" d="M860.32,550.61c0-19.99,9.56-30.31,24.01-30.31,9.02,0,14.45,3.8,18.04,8.58h.65c-.22-1.85-.65-6.41-.65-8.58v-19.56l9.56-3.69v82.58h-7.71l-1.41-7.82h-.44c-3.48,5-9.02,8.91-18.14,8.91-14.45,0-23.9-10.1-23.9-30.1ZM902.48,552.46v-1.74c0-14.45-3.91-22.49-16.84-22.49-10.32,0-15.43,8.8-15.43,22.6s5.11,21.95,15.54,21.95c12.28,0,16.73-6.74,16.73-20.32Z"/>
      <path class="cls-2" d="M920.08,521.39h10.21l12.39,34.33c1.74,4.78,4.02,11.84,4.67,15.43h.43c.76-3.59,3.26-10.76,4.89-15.43l12.39-34.33h10.21l-22.17,58.24h-10.97l-22.06-58.24Z"/>
      <path class="cls-2" d="M1028.84,546.59v5.76h-39.88c.33,13.15,6.95,20.21,18.58,20.21,5.65,0,11.41-1.09,15.97-2.83l2.72,7.17c-5.98,2.61-11.19,3.8-19.12,3.8-16.62,0-28.03-10.32-28.03-29.77s10.32-30.64,25.75-30.64,24.01,10.43,24.01,26.29ZM989.18,544.75h29.66c-.11-9.89-4.45-16.62-14.13-16.62-9.13,0-14.56,6.19-15.54,16.62Z"/>
      <path class="cls-2" d="M1090.56,541.7v37.92h-9.45v-37.27c0-9.34-4.13-14.02-13.04-14.02-12.93,0-17.06,7.5-17.06,21.08v30.21h-9.56v-58.24h7.71l1.41,7.93h.54c3.8-6.08,10.97-9.02,18.36-9.02,13.91,0,21.08,6.41,21.08,21.4Z"/>
      <path class="cls-2" d="M1129.45,571.48l2.61,6.85c-2.06,1.3-6.19,2.39-10.65,2.39-9.13,0-17.06-3.91-17.06-18.04v-51.07l9.56-3.59v13.36h16.84v7.39h-16.84v33.68c0,7.06,3.8,10.43,9.13,10.43,2.17,0,5.11-.76,6.41-1.41Z"/>
      <path class="cls-2" d="M1151.08,505.63c0,4.13-2.61,6.08-5.54,6.08-3.15,0-5.65-1.96-5.65-6.08s2.5-6.08,5.65-6.08c2.93,0,5.54,1.85,5.54,6.08ZM1150.21,579.62h-9.56v-58.24h9.56v58.24Z"/>
      <path class="cls-2" d="M1181.17,580.71c-8.15,0-13.8-1.3-18.25-3.69l2.82-7.39c3.8,1.63,10.1,3.37,15.65,3.37,9.67,0,13.8-3.37,13.8-8.58,0-4.35-2.93-6.95-14.34-11.3-11.3-4.35-18.04-7.82-18.04-17.38s8.8-15.43,21.84-15.43c7.06,0,13.15,1.52,18.58,3.91l-2.93,7.71c-5-2.17-10.65-3.8-16.3-3.8-7.82,0-12.06,2.72-12.06,7.06,0,4.89,3.8,6.85,14.99,11.08,11.08,4.13,17.49,7.93,17.49,17.28,0,11.3-9.02,17.17-23.25,17.17Z"/>
      <path class="cls-2" d="M1239.08,571.48l2.61,6.85c-2.06,1.3-6.19,2.39-10.65,2.39-9.13,0-17.06-3.91-17.06-18.04v-51.07l9.56-3.59v13.36h16.84v7.39h-16.84v33.68c0,7.06,3.8,10.43,9.13,10.43,2.17,0,5.11-.76,6.41-1.41Z"/>
      <path class="cls-2" d="M1293.19,539.97v39.66h-6.95l-1.85-8.26h-.43c-5.11,6.41-9.78,9.34-19.56,9.34-10.54,0-18.36-5.43-18.36-17.28s8.91-18.04,27.92-18.58l9.89-.33v-3.48c0-9.67-4.45-12.93-12.06-12.93-6.08,0-11.63,2.17-16.41,4.45l-2.93-7.17c5.11-2.72,12.28-5,19.88-5,14.13,0,20.86,5.98,20.86,19.56ZM1275.15,551.48c-14.56.54-19.23,4.67-19.23,12.06,0,6.52,4.35,9.45,10.65,9.45,9.78,0,17.17-5.32,17.17-16.62v-5.22l-8.58.33Z"/>
    </g>
    <g>
      <path class="cls-2" d="M794.56,459.4v-77.35h43.22v8.56h-33.47v24.16h29.03v8.45h-29.03v27.62h35.86l-3.25,8.56h-42.36Z"/>
      <path class="cls-2" d="M849.15,430.47c0-19.93,9.53-30.22,23.94-30.22,8.99,0,14.41,3.79,17.98,8.56h.65c-.22-1.84-.65-6.39-.65-8.56v-19.5l9.53-3.68v82.33h-7.69l-1.41-7.8h-.43c-3.47,4.98-8.99,8.88-18.09,8.88-14.41,0-23.83-10.07-23.83-30.01ZM891.18,432.31v-1.73c0-14.41-3.9-22.42-16.79-22.42-10.29,0-15.38,8.78-15.38,22.53s5.09,21.88,15.49,21.88c12.24,0,16.68-6.72,16.68-20.26Z"/>
      <path class="cls-2" d="M966.47,459.4h-7.8l-1.41-7.69h-.43c-3.79,6.07-10.94,8.77-18.42,8.77-13.97,0-21.12-6.39-21.12-21.12v-38.02h9.64v37.37c0,9.32,4.12,13.87,12.89,13.87,12.89,0,17.12-7.48,17.12-21.02v-30.22h9.53v58.07Z"/>
      <path class="cls-2" d="M979.46,430.69c0-21.45,11.59-30.44,27.19-30.44,5.85,0,11.92,1.41,15.38,3.14l-3.03,7.91c-3.47-1.3-8.56-2.71-12.57-2.71-11.59,0-17.12,7.47-17.12,21.99s5.63,21.67,16.58,21.67c4.88,0,9.1-1.08,12.89-2.82l2.92,7.58c-3.25,2.06-9.1,3.47-15.71,3.47-15.49,0-26.54-9.21-26.54-29.79Z"/>
      <path class="cls-2" d="M1075.33,419.85v39.54h-6.93l-1.84-8.23h-.43c-5.09,6.39-9.75,9.32-19.5,9.32-10.51,0-18.31-5.42-18.31-17.22s8.88-17.98,27.84-18.52l9.86-.33v-3.47c0-9.64-4.44-12.89-12.03-12.89-6.07,0-11.59,2.17-16.36,4.44l-2.93-7.15c5.09-2.71,12.24-4.98,19.82-4.98,14.08,0,20.8,5.96,20.8,19.5ZM1057.35,431.34c-14.52.54-19.17,4.66-19.17,12.03,0,6.5,4.33,9.42,10.62,9.42,9.75,0,17.12-5.31,17.12-16.58v-5.2l-8.56.32Z"/>
      <path class="cls-2" d="M1087.89,430.69c0-21.45,11.59-30.44,27.19-30.44,5.85,0,11.92,1.41,15.38,3.14l-3.03,7.91c-3.47-1.3-8.56-2.71-12.57-2.71-11.59,0-17.12,7.47-17.12,21.99s5.63,21.67,16.58,21.67c4.88,0,9.1-1.08,12.89-2.82l2.92,7.58c-3.25,2.06-9.1,3.47-15.71,3.47-15.49,0-26.54-9.21-26.54-29.79Z"/>
      <path class="cls-2" d="M1151.36,385.62c0,4.12-2.6,6.07-5.52,6.07-3.14,0-5.63-1.95-5.63-6.07s2.49-6.07,5.63-6.07c2.92,0,5.52,1.84,5.52,6.07ZM1150.5,459.4h-9.53v-58.07h9.53v58.07Z"/>
      <path class="cls-2" d="M1190.14,460.48c-15.38,0-26.65-10.94-26.65-30.22s10.29-30.01,26.97-30.01c15.71,0,26.76,10.83,26.76,30.01s-10.51,30.22-27.08,30.22ZM1190.36,452.57c11.7,0,17.01-8.56,17.01-22.32s-5.31-21.99-17.12-21.99-16.9,8.23-16.9,21.99,5.2,22.32,17.01,22.32ZM1205.64,377.5c-2.71,4.01-10.4,12.35-15.49,16.25h-6.28v-1.3c3.14-4.01,7.8-11.16,10.29-16.03h11.48v1.08Z"/>
      <path class="cls-2" d="M1279.08,421.59v37.81h-9.42v-37.16c0-9.32-4.12-13.97-13-13.97-12.89,0-17.01,7.48-17.01,21.02v30.12h-9.53v-58.07h7.69l1.41,7.91h.54c3.79-6.07,10.94-8.99,18.31-8.99,13.87,0,21.02,6.39,21.02,21.34Z"/>
    </g>
  </g>
  <g>
    <path class="cls-1" d="M816.38,678.81c-1.88.94-5.65,1.88-10.47,1.88-11.18,0-19.59-7.06-19.59-20.06s8.41-20.82,20.71-20.82c4.94,0,8.06,1.06,9.41,1.76l-1.24,4.18c-1.94-.94-4.71-1.65-8-1.65-9.29,0-15.47,5.94-15.47,16.35,0,9.71,5.59,15.94,15.23,15.94,3.12,0,6.29-.65,8.35-1.65l1.06,4.06Z"/>
    <path class="cls-1" d="M856.68,659.87c0,13.65-8.29,20.88-18.41,20.88s-17.82-8.12-17.82-20.12c0-12.59,7.82-20.82,18.41-20.82s17.82,8.29,17.82,20.06ZM825.92,660.51c0,8.47,4.59,16.06,12.65,16.06s12.71-7.47,12.71-16.47c0-7.88-4.12-16.12-12.65-16.12s-12.71,7.82-12.71,16.53Z"/>
    <path class="cls-1" d="M863.33,640.45h5.12v35.35h16.94v4.29h-22.06v-39.65Z"/>
    <path class="cls-1" d="M911.62,661.51h-15.41v14.29h17.18v4.29h-22.29v-39.65h21.41v4.29h-16.29v12.53h15.41v4.24Z"/>
    <path class="cls-1" d="M950.21,678.34c-2.29.82-6.82,2.18-12.18,2.18-6,0-10.94-1.53-14.82-5.24-3.41-3.29-5.53-8.59-5.53-14.76.06-11.82,8.18-20.47,21.47-20.47,4.59,0,8.18,1,9.88,1.82l-1.24,4.18c-2.12-.94-4.76-1.71-8.76-1.71-9.65,0-15.94,6-15.94,15.94s6.06,16,15.29,16c3.35,0,5.65-.47,6.82-1.06v-11.82h-8.06v-4.12h13.06v19.06Z"/>
    <path class="cls-1" d="M963.16,640.45v39.65h-5.12v-39.65h5.12Z"/>
    <path class="cls-1" d="M1005.98,659.87c0,13.65-8.29,20.88-18.41,20.88s-17.82-8.12-17.82-20.12c0-12.59,7.82-20.82,18.41-20.82s17.82,8.29,17.82,20.06ZM975.22,660.51c0,8.47,4.59,16.06,12.65,16.06s12.71-7.47,12.71-16.47c0-7.88-4.12-16.12-12.65-16.12s-12.71,7.82-12.71,16.53Z"/>
    <path class="cls-1" d="M1025.1,640.45h5.12v35.35h16.94v4.29h-22.06v-39.65Z"/>
    <path class="cls-1" d="M1057.99,640.45v39.65h-5.12v-39.65h5.12Z"/>
    <path class="cls-1" d="M1066.93,640.98c2.24-.47,5.76-.82,9.35-.82,5.12,0,8.41.88,10.88,2.88,2.06,1.53,3.29,3.88,3.29,7,0,3.82-2.53,7.18-6.71,8.71v.12c3.76.94,8.18,4.06,8.18,9.94,0,3.41-1.35,6-3.35,7.94-2.76,2.53-7.24,3.71-13.71,3.71-3.53,0-6.23-.24-7.94-.47v-39ZM1072.04,657.22h4.65c5.41,0,8.59-2.82,8.59-6.65,0-4.65-3.53-6.47-8.71-6.47-2.35,0-3.71.18-4.53.35v12.76ZM1072.04,676.22c1,.18,2.47.23,4.29.23,5.29,0,10.18-1.94,10.18-7.71,0-5.41-4.65-7.65-10.24-7.65h-4.24v15.12Z"/>
    <path class="cls-1" d="M1119.34,661.51h-15.41v14.29h17.18v4.29h-22.29v-39.65h21.41v4.29h-16.29v12.53h15.41v4.24Z"/>
    <path class="cls-1" d="M1127.75,640.98c2.59-.53,6.29-.82,9.82-.82,5.47,0,9,1,11.47,3.24,2,1.76,3.12,4.47,3.12,7.53,0,5.24-3.29,8.71-7.47,10.12v.18c3.06,1.06,4.88,3.88,5.82,8,1.29,5.53,2.23,9.35,3.06,10.88h-5.29c-.65-1.12-1.53-4.53-2.65-9.47-1.18-5.47-3.29-7.53-7.94-7.71h-4.82v17.18h-5.12v-39.12ZM1132.87,659.04h5.24c5.47,0,8.94-3,8.94-7.53,0-5.12-3.71-7.35-9.12-7.41-2.47,0-4.24.23-5.06.47v14.47Z"/>
    <path class="cls-1" d="M1166.93,644.81h-12.06v-4.35h29.35v4.35h-12.12v35.29h-5.18v-35.29Z"/>
    <path class="cls-1" d="M1195.05,667.63l-4.12,12.47h-5.29l13.47-39.65h6.18l13.53,39.65h-5.47l-4.24-12.47h-14.06ZM1208.05,663.63l-3.88-11.41c-.88-2.59-1.47-4.94-2.06-7.24h-.12c-.59,2.35-1.24,4.76-2,7.18l-3.88,11.47h11.94Z"/>
    <path class="cls-1" d="M1224.64,640.98c3.12-.47,6.82-.82,10.88-.82,7.35,0,12.59,1.71,16.06,4.94,3.53,3.23,5.59,7.82,5.59,14.23s-2,11.76-5.71,15.41c-3.71,3.71-9.82,5.71-17.53,5.71-3.65,0-6.71-.18-9.29-.47v-39ZM1229.76,676.04c1.29.24,3.18.29,5.18.29,10.94,0,16.88-6.12,16.88-16.82.06-9.35-5.24-15.29-16.06-15.29-2.65,0-4.65.24-6,.53v31.29Z"/>
    <path class="cls-1" d="M1281.41,640.45v16.59h19.18v-16.59h5.18v39.65h-5.18v-18.59h-19.18v18.59h-5.12v-39.65h5.12Z"/>
    <path class="cls-1" d="M1348.53,659.87c0,13.65-8.29,20.88-18.41,20.88s-17.82-8.12-17.82-20.12c0-12.59,7.82-20.82,18.41-20.82s17.82,8.29,17.82,20.06ZM1317.76,660.51c0,8.47,4.59,16.06,12.65,16.06s12.71-7.47,12.71-16.47c0-7.88-4.12-16.12-12.65-16.12s-12.71,7.82-12.71,16.53Z"/>
    <path class="cls-1" d="M1355.18,640.98c2.59-.53,6.29-.82,9.82-.82,5.47,0,9,1,11.47,3.24,2,1.76,3.12,4.47,3.12,7.53,0,5.24-3.29,8.71-7.47,10.12v.18c3.06,1.06,4.88,3.88,5.82,8,1.29,5.53,2.23,9.35,3.06,10.88h-5.29c-.65-1.12-1.53-4.53-2.65-9.47-1.18-5.47-3.29-7.53-7.94-7.71h-4.82v17.18h-5.12v-39.12ZM1360.3,659.04h5.24c5.47,0,8.94-3,8.94-7.53,0-5.12-3.71-7.35-9.12-7.41-2.47,0-4.24.23-5.06.47v14.47Z"/>
    <path class="cls-1" d="M1407.36,661.51h-15.41v14.29h17.18v4.29h-22.29v-39.65h21.41v4.29h-16.29v12.53h15.41v4.24Z"/>
    <path class="cls-1" d="M1415.77,640.98c2.24-.47,5.76-.82,9.35-.82,5.12,0,8.41.88,10.88,2.88,2.06,1.53,3.29,3.88,3.29,7,0,3.82-2.53,7.18-6.71,8.71v.12c3.76.94,8.18,4.06,8.18,9.94,0,3.41-1.35,6-3.35,7.94-2.76,2.53-7.24,3.71-13.71,3.71-3.53,0-6.23-.24-7.94-.47v-39ZM1420.89,657.22h4.65c5.41,0,8.59-2.82,8.59-6.65,0-4.65-3.53-6.47-8.71-6.47-2.35,0-3.71.18-4.53.35v12.76ZM1420.89,676.22c1,.18,2.47.23,4.29.23,5.29,0,10.18-1.94,10.18-7.71,0-5.41-4.65-7.65-10.24-7.65h-4.24v15.12Z"/>
  </g>
</svg>